<svg width="75" height="96" viewBox="0 0 75 96" fill="none" xmlns="http://www.w3.org/2000/svg">
<g id="_?&#235;&#141;&#137;&#236;&#148;&#160;??1">
<path id="Vector" d="M61.7286 20.4528C47.815 10.6118 37.4631 15.3517 38.4215 33.0269C28.9517 27.5994 13.4523 32.4059 15.2617 45.1553C25.1475 54.6227 22.3467 36.8668 30.4595 43.3415C40.5116 52.1282 38.2984 30.0938 49.5377 47.5094C56.8134 45.9991 48.5776 35.7265 52.2484 29.4413C54.7059 28.987 58.4322 30.5991 60.0769 28.2835C60.7251 25.9557 64.6367 22.3123 61.7268 20.4546L61.7286 20.4528Z" fill="#F29776" fill-opacity="0.8"/>
<path id="Vector_2" d="M42.4027 43.897C43.152 44.0796 43.7628 44.7712 44.3321 45.6668C45.1974 47.0287 46.1751 48.2453 47.5733 49.077C48.4887 49.6214 49.5011 49.859 50.5549 49.7207C51.1692 49.6409 51.7628 49.4317 52.3269 49.171C52.891 48.9103 53.8065 47.9757 54.3395 47.9225C61.1921 47.2522 57.0199 63.4129 55.3206 67.5538C48.1028 86.0997 19.3528 84.4274 14.0697 65.2963C13.0972 61.5332 9.58949 46.9489 15.84 48.0626C16.3902 48.1601 17.2434 49.0894 17.7383 49.4121C18.3422 49.8058 18.96 50.1889 19.6141 50.4868C20.514 50.8982 21.5159 51.2157 22.504 50.9727C23.923 50.6251 24.8678 49.4387 25.5963 48.2222C26.1847 47.2398 26.5741 45.7732 27.5933 45.1401C28.7752 44.4059 30.0021 45.3369 30.9764 46.0569C32.1098 46.894 32.9768 48.1052 33.4717 49.4405C33.9666 50.7759 34.0912 52.2247 33.752 53.5991C33.5738 54.3191 33.271 55.0001 32.8643 55.6136C32.4577 56.2272 31.5024 56.7575 31.1667 57.3799C29.9191 59.6906 33.0443 66.8267 35.9809 65.9205C39.1096 64.1312 34.4529 60.7972 35.1347 58.5929C36.3702 57.3888 37.4743 55.9435 37.8602 54.2073C38.3361 52.0598 37.3774 49.9016 38.0748 47.7682C38.5385 46.3513 39.4695 45.0975 40.7068 44.2977C41.3505 43.881 41.9078 43.7781 42.4044 43.8987L42.4027 43.897Z" fill="#897D7A"/>
</g>
</svg>
