<svg width="75" height="74" viewBox="0 0 75 74" fill="none" xmlns="http://www.w3.org/2000/svg">
<g id="Layer_2" clip-path="url(#clip0_5775_13773)">
<path id="Vector" d="M50.3346 43.7294C55.1416 43.7294 59.9446 43.8259 64.7437 43.3789C65.2525 43.3332 65.824 43.1401 66.2625 43.7345C66.6735 43.9986 66.9201 44.4558 67.1628 44.9435C69.6289 49.8761 72.1184 54.7934 74.5806 59.731C75.4066 61.3871 75.0034 62.337 73.4533 62.3878C72.3298 62.4234 71.2064 62.3878 70.079 62.3827C47.3558 62.3827 24.6286 62.3929 1.9053 62.398C1.21636 62.398 0.476537 62.4996 0.108581 61.5293C-0.239803 60.6149 0.331703 60.0054 0.66443 59.3297C3.07572 54.5038 5.49875 49.6881 7.88264 44.8368C8.35237 43.8767 8.97085 43.7294 9.74982 43.7294C14.5881 43.7497 19.4263 43.7446 24.2645 43.7294H50.3307" fill="#7C7572"/>
<path id="Vector_2" d="M13.473 49.9835C12.6855 50.0383 11.8484 49.7032 11.7629 48.1372C11.6729 46.5286 12.555 46.3336 13.4415 46.3397C14.319 46.3397 15.381 46.1812 15.4395 47.93C15.4935 49.4899 14.706 49.9835 13.473 49.9835Z" fill="#363F48"/>
<path id="Vector_3" d="M26.2618 49.9835C25.4743 50.0383 24.6373 49.7032 24.5518 48.1372C24.4618 46.5286 25.3438 46.3336 26.2303 46.3397C27.1078 46.3397 28.1698 46.1812 28.2283 47.93C28.2823 49.4899 27.4948 49.9835 26.2618 49.9835Z" fill="#363F48"/>
<path id="Vector_4" d="M53.5472 46.342C54.7308 46.4446 55.9539 46.3601 55.9821 47.9539C56.0159 49.6382 54.9225 50.0065 53.5754 49.9884C52.2734 49.9703 51.3377 49.4752 51.3772 47.9478C51.4166 46.3299 52.6623 46.4808 53.5472 46.3359V46.342Z" fill="#363F48"/>
<path id="Vector_5" d="M40.3531 46.342C41.5367 46.4446 42.7598 46.3601 42.788 47.9539C42.8218 49.6382 41.7284 50.0065 40.3813 49.9884C39.0793 49.9703 38.1436 49.4752 38.1831 47.9478C38.2225 46.3299 39.4682 46.4808 40.3531 46.3359V46.342Z" fill="#363F48"/>
<path id="Vector_6" d="M33.5216 56.3733C32.2814 56.4072 31.1004 56.2909 31.1057 55.0069C31.1111 53.6939 32.4962 53.6406 33.4786 53.6406C34.4235 53.6406 35.6851 53.9071 35.712 55.0166C35.7442 56.2957 34.547 56.4169 33.5216 56.3733Z" fill="#363F48"/>
<path id="Vector_7" d="M20.2975 56.3659C19.2773 56.4357 18.3384 56.2961 18.2165 55.0001C18.0856 53.5596 19.2457 53.6543 19.9905 53.6444C20.8076 53.6344 21.9271 53.5546 21.891 55.0899C21.8639 56.336 21.0965 56.4157 20.293 56.3609L20.2975 56.3659Z" fill="#363F48"/>
<path id="Vector_8" d="M61.2936 56.3724C59.9977 56.4224 58.7585 56.2626 58.7471 54.8198C58.7358 53.5268 60.1052 53.6466 60.9654 53.6416C61.9896 53.6416 63.3873 53.5518 63.3534 55.0894C63.3251 56.3475 62.3518 56.4124 61.2936 56.3724Z" fill="#363F48"/>
<path id="Vector_9" d="M47.2865 53.6406C48.1602 53.7285 49.55 53.3409 49.533 54.8396C49.516 56.1884 48.3644 56.3951 47.122 56.3796C46.0215 56.3641 44.9039 56.421 44.9266 54.9843C44.9436 53.5321 46.1122 53.651 47.2865 53.6458V53.6406Z" fill="#363F48"/>
<path id="Vector_10" d="M30.2021 47.4953C27.9629 46.2886 25.9564 44.8215 24.604 42.6207C20.8764 34.3083 25.0343 24.7979 30.6324 19.5761C30.9003 19.3243 31.1769 18.9337 31.5984 19.2158C31.976 19.4676 31.8311 19.8973 31.7477 20.2663C31.3788 21.9591 30.9837 23.6303 31.4579 25.3883C31.8925 26.99 32.9024 27.9362 34.5006 28.1793C36.2744 28.4484 38.0395 28.3616 39.3567 26.9292C39.9714 26.2607 39.9758 25.3796 39.8309 24.4724C39.3479 21.473 37.8814 18.7297 37.5785 15.6868C37.4994 14.8838 37.2931 14.0808 37.7102 13.3125C37.8551 13.3863 38.0351 13.4644 38.0878 13.612C39.001 16.3379 41.2403 18.122 42.9044 20.3183C46.7989 25.4577 48.5639 31.1961 47.3477 37.5812C46.0964 44.14 42.4433 47.5604 35.809 48.7671L33.4688 48.5154C31.4184 48.2159 31.8179 48.3504 30.1934 47.4953H30.2021Z" fill="#B97D69"/>
<path id="Vector_11" d="M35.4589 48.6968C37.0017 47.7758 38.8225 47.6075 40.3783 46.6289C43.9201 44.406 45.7931 41.107 46.4623 37.0995C47.5661 30.5326 45.8191 24.6919 41.7559 19.5066C40.0524 17.3368 37.7709 15.5301 37.3406 12.5234C37.3711 12.1957 37.3537 11.8503 37.4406 11.5404C37.5405 11.1861 37.5797 10.7167 38.0099 10.6149C38.5922 10.4776 38.7052 11.04 38.9051 11.3943C40.4956 14.2637 42.6077 16.615 45.1369 18.7007C51.4251 23.8904 53.9457 34.1548 49.7564 42.1299C48.4787 44.1447 46.8317 45.7743 44.8327 47.0407C43.1509 48.1079 43.064 47.975 41.5821 48.3603C39.5483 48.6304 37.5145 48.9227 35.4546 48.6924L35.4589 48.6968Z" fill="#A56E5B"/>
</g>
<defs>
<clipPath id="clip0_5775_13773">
<rect width="75" height="73" fill="white" transform="translate(0 0.5)"/>
</clipPath>
</defs>
</svg>
