<svg width="75" height="80" viewBox="0 0 75 80" fill="none" xmlns="http://www.w3.org/2000/svg">
<g id="_?&#235;&#141;&#137;&#236;&#148;&#160;??1">
<g id="Vector">
<path d="M19.3493 24.0194H65.5603L66.0456 67.9981H15.9159C12.4097 67.9981 9.53442 65.1835 9.53442 61.738C9.53442 58.2925 12.4097 55.4778 15.9159 55.4778H19.3493V11.9844H14.2781C14.2781 11.9844 9.53442 11.9844 9.53442 19.203V61.738" fill="#B97D69"/>
<path d="M19.3493 24.0194H65.5603L66.0456 67.9981H15.9159C12.4097 67.9981 9.53442 65.1835 9.53442 61.738M9.53442 61.738C9.53442 58.2925 12.4097 55.4778 15.9159 55.4778H19.3493V11.9844H14.2781C14.2781 11.9844 9.53442 11.9844 9.53442 19.203V61.738Z" stroke="#7C7572" stroke-width="1.21321" stroke-miterlimit="10"/>
</g>
<path id="Vector_2" d="M41.698 30.4111C40.5545 31.3159 39.9639 33.3264 38.6696 34.3066C37.7649 35.1485 36.37 35.5004 36.7093 36.8324C37.2371 38.1644 38.9084 39.1697 40.1147 40.0116C42.0499 41.3813 44.7013 42.6882 47.4156 42.0096C50.8084 41.1174 52.065 37.9256 54.0631 36.0784C55.5458 34.7087 58.436 33.6406 58.4486 31.3159C57.9711 27.7471 44.1107 28.7524 41.8614 30.3106L41.7106 30.4237L41.698 30.4111Z" fill="#7C7572" stroke="#7C7572" stroke-width="1.25661" stroke-miterlimit="10"/>
<path id="Vector_3" d="M53.7991 46.6435C53.1583 47.5357 53.2965 48.2897 53.7991 49.3075C54.3018 50.3254 55.7092 53.6302 57.6067 54.6481C59.5041 55.6659 60.3963 53.1276 61.1629 52.6124C61.9294 52.0972 61.4142 50.074 61.1629 48.0383C61.1629 48.0383 58.235 45.5 56.8401 45.5C55.4453 45.5 54.4275 45.7513 53.7866 46.6435H53.7991Z" fill="#7C7572" stroke="#7C7572" stroke-width="1.25661" stroke-miterlimit="10"/>
<path id="Vector_4" d="M39.3859 46.5197C37.1617 44.9992 29.2828 41.82 27.7623 42.4483C26.2418 43.0766 24.0804 44.773 23.5652 47.1103C23.05 49.4476 28.6419 53.6321 29.5341 55.2908C30.4263 56.9496 30.3634 61.9006 31.4692 62.7928C32.5751 63.685 33.7186 62.5415 33.7186 62.5415C33.7186 62.5415 37.1491 59.1109 38.9335 56.183C40.7179 53.2551 41.5975 48.0528 39.3733 46.5197H39.3859Z" fill="#7C7572" stroke="#7C7572" stroke-width="1.25661" stroke-miterlimit="10"/>
<path id="Vector_5" d="M9.52368 64.5999C9.52368 60.9093 12.5928 57.879 16.3352 57.879H20V11.1953H14.587C14.587 11.1953 9.52368 11.1953 9.52368 18.9522V64.5999Z" fill="#7C7572"/>
</g>
</svg>
