<svg width="75" height="73" viewBox="0 0 75 73" fill="none" xmlns="http://www.w3.org/2000/svg">
<g id="text_x5F_x" clip-path="url(#clip0_5732_38410)">
<path id="Vector" d="M61.9994 5.4212C60.9338 3.94882 59.8682 2.47554 58.8027 1.00315C58.5021 0.588232 58.1576 0.142843 57.6519 0.0290307C56.5552 -0.218308 55.868 1.16536 55.7407 2.25867C55.6133 3.35198 55.3668 4.74998 54.2637 4.96954C53.703 5.08066 53.0671 4.81719 52.576 5.10307C51.953 5.46601 52.0639 6.36665 51.789 7.02174C51.4042 7.9394 50.2626 8.30772 49.2483 8.33102C48.2341 8.35432 47.2015 8.14462 46.2166 8.38121C45.2316 8.61779 44.2952 9.54263 44.5609 10.5006C44.7121 11.0455 45.2179 11.4873 45.2105 12.051C45.2023 12.6084 44.6938 13.0287 44.189 13.2868C41.9149 14.45 38.8144 13.7223 37.3274 11.6764C37.1826 11.4774 37.0498 11.265 36.8574 11.1091C36.1895 10.5669 35.1147 10.9594 34.5952 11.6396C34.0757 12.3198 33.9163 13.1918 33.6066 13.9849C32.5429 16.7065 29.7787 18.3796 27.1253 19.7032C25.1609 20.6836 15.8586 25.2442 20.0924 28.266C21.2679 29.1048 22.9446 28.784 24.2694 29.3728C25.871 30.0852 26.5802 32.2485 25.7015 33.7388C25.2498 34.5051 24.4389 35.1539 24.438 36.0384C24.438 36.5564 24.7294 37.0492 24.6927 37.5654C24.6139 38.6892 23.1819 39.148 22.4727 40.0343C21.9239 40.7199 21.8598 41.7729 22.4114 42.4567C22.864 43.0185 23.607 42.7013 24.0578 43.0642C24.57 43.4765 24.8155 44.1871 25.4743 44.4327C26.9137 44.9677 28.4034 43.5437 29.7594 44.3977C30.5492 44.8951 31.3747 45.2294 32.3294 45.2267C32.0262 45.2276 32.7903 46.1515 32.8993 46.2277C33.6754 46.7681 34.3259 46.6596 34.5852 47.7368C34.7116 48.262 34.8499 48.7253 35.2439 49.1205C35.003 48.8902 34.9471 50.4414 35.0002 50.5884C35.2393 51.2506 36.1033 51.9532 35.834 52.6988C35.4317 52.5492 35.1266 52.1871 34.6924 52.0742C34.4798 52.0186 34.2324 52.0204 34.0144 52.0868C33.7963 52.1531 33.7056 52.3135 33.5297 52.4309C33.3492 52.551 33.1852 52.3914 33.0166 52.3386C32.7115 52.2427 32.5026 52.5545 32.2589 52.6567C31.9803 52.7732 31.6789 52.7696 31.448 52.991C30.3412 54.0565 32.5777 54.7483 33.395 54.5843C33.635 55.5217 33.4674 56.5335 33.7587 57.4852C34.1509 58.7649 34.9672 59.7462 34.7391 61.0537C34.6575 61.5224 34.7968 61.3924 34.4587 61.8791C34.0299 62.4983 33.6167 63.0369 33.3483 63.7511C32.9039 64.9314 32.3441 66.0775 32.0848 67.3178C31.9593 67.9191 31.8713 68.5724 32.0179 69.1782C32.1645 69.784 32.8654 70.2088 32.8874 70.7456C32.8984 71.0136 32.8077 71.2761 32.7903 71.5441C32.7069 72.7996 34.98 73.6626 35.2476 72.3166C35.1825 72.6482 36.6476 71.9205 36.7676 71.8569C37.4832 71.4805 38.2381 71.0593 39.0728 71.0207C39.0737 71.0207 39.0746 71.0207 39.0765 71.0207C39.9716 70.975 40.5058 70.276 41.2598 69.9319C41.8966 69.6416 42.5792 69.5779 43.2453 69.3906C45.2261 68.8332 47.0494 67.7731 49.1201 67.5293C50.8416 67.3259 52.5394 67.0221 53.1487 65.1984C53.3347 64.6419 53.4739 64.0451 53.8624 63.5988C54.1675 63.2475 54.599 63.0243 54.9426 62.7089C55.5657 62.1371 55.5382 61.5403 54.9362 61.0161C54.468 60.6092 54.3233 60.0652 53.9467 59.6127C53.6324 59.2336 53.1111 59.0965 53.0534 58.5462C52.9911 57.9458 53.2421 57.3642 53.418 56.7862C54.272 53.9758 53.3356 50.9253 51.9173 48.3426C50.4981 45.7599 48.6024 43.4388 47.3197 40.788C46.7159 39.5397 46.2468 38.2169 45.4451 37.0797C43.7244 34.6386 40.4187 32.8006 40.5974 29.8406C40.7128 27.9219 42.406 26.3993 44.2439 25.72C44.9989 25.4404 45.796 25.2648 46.5198 24.9162C47.1035 24.6348 47.6266 24.2477 48.1452 23.8623C50.1087 22.4052 52.0721 20.948 54.0365 19.49C54.6403 19.0419 55.2642 18.5705 55.6032 17.9082C56.3747 16.4009 55.4072 14.6292 55.3412 12.9444C55.2725 11.1907 56.2263 9.51753 57.5163 8.29876C58.8063 7.07999 60.4143 6.24029 61.9994 5.41762V5.4212ZM26.4363 35.4173C26.4363 35.4173 26.4546 35.4846 26.5023 35.5527C26.4537 35.4846 26.4363 35.4173 26.4363 35.4173ZM40.2474 57.6259C40.2254 57.6734 40.1796 57.7809 40.1622 57.8885C40.1796 57.7818 40.2254 57.6734 40.2474 57.6259ZM42.8247 59.7265C42.7615 59.7238 42.5975 59.7184 42.5361 59.7157L42.8247 59.7265ZM49.9181 17.2944C49.9181 17.3024 49.9181 17.3087 49.9181 17.3087C49.9181 17.3087 49.9181 17.3033 49.9181 17.2944Z" fill="#897D7A"/>
<path id="Vector_2" d="M58.9994 3.4212C57.9338 1.94882 56.8682 0.475537 55.8027 -0.996847C55.5021 -1.41177 55.1576 -1.85716 54.6519 -1.97097C53.5552 -2.21831 52.868 -0.834643 52.7407 0.258667C52.6133 1.35198 52.3668 2.74998 51.2637 2.96954C50.703 3.08066 50.0671 2.81719 49.576 3.10307C48.953 3.46601 49.0639 4.36665 48.789 5.02174C48.4042 5.9394 47.2626 6.30772 46.2483 6.33102C45.2341 6.35432 44.2015 6.14462 43.2166 6.38121C42.2316 6.61779 41.2952 7.54263 41.5609 8.50062C41.7121 9.04548 42.2179 9.48728 42.2105 10.051C42.2023 10.6084 41.6938 11.0287 41.189 11.2868C38.9149 12.45 35.8144 11.7223 34.3274 9.67637C34.1826 9.47743 34.0498 9.26504 33.8574 9.10911C33.1895 8.56693 32.1147 8.95945 31.5952 9.63963C31.0757 10.3198 30.9163 11.1918 30.6066 11.9849C29.5429 14.7065 26.7787 16.3796 24.1253 17.7032C22.1609 18.6836 12.8586 23.2442 17.0924 26.266C18.2679 27.1048 19.9446 26.784 21.2694 27.3728C22.871 28.0852 23.5802 30.2485 22.7015 31.7388C22.2498 32.5051 21.4389 33.1539 21.438 34.0384C21.438 34.5564 21.7294 35.0492 21.6927 35.5654C21.6139 36.6892 20.1819 37.148 19.4727 38.0343C18.9239 38.7199 18.8598 39.7729 19.4114 40.4567C19.864 41.0185 20.607 40.7013 21.0578 41.0642C21.57 41.4765 21.8155 42.1871 22.4743 42.4327C23.9137 42.9677 25.4034 41.5437 26.7594 42.3977C27.5492 42.8951 28.3747 43.2294 29.3294 43.2267C29.0262 43.2276 29.7903 44.1515 29.8993 44.2277C30.6754 44.7681 31.3259 44.6596 31.5852 45.7368C31.7116 46.262 31.8499 46.7253 32.2439 47.1205C32.003 46.8902 31.9471 48.4414 32.0002 48.5884C32.2393 49.2506 33.1033 49.9532 32.834 50.6988C32.4317 50.5492 32.1266 50.1871 31.6924 50.0742C31.4798 50.0186 31.2324 50.0204 31.0144 50.0868C30.7963 50.1531 30.7056 50.3135 30.5297 50.4309C30.3492 50.551 30.1852 50.3914 30.0166 50.3386C29.7115 50.2427 29.5026 50.5545 29.2589 50.6567C28.9803 50.7732 28.6789 50.7696 28.448 50.991C27.3412 52.0565 29.5777 52.7483 30.395 52.5843C30.635 53.5217 30.4674 54.5335 30.7587 55.4852C31.1509 56.7649 31.9672 57.7462 31.7391 59.0537C31.6575 59.5224 31.7968 59.3924 31.4587 59.8791C31.0299 60.4983 30.6167 61.0369 30.3483 61.7511C29.9039 62.9314 29.3441 64.0775 29.0848 65.3178C28.9593 65.9191 28.8713 66.5724 29.0179 67.1782C29.1645 67.784 29.8654 68.2088 29.8874 68.7456C29.8984 69.0136 29.8077 69.2761 29.7903 69.5441C29.7069 70.7996 31.98 71.6626 32.2476 70.3166C32.1825 70.6482 33.6476 69.9205 33.7676 69.8569C34.4832 69.4805 35.2381 69.0593 36.0728 69.0207C36.0737 69.0207 36.0746 69.0207 36.0765 69.0207C36.9716 68.975 37.5058 68.276 38.2598 67.9319C38.8966 67.6416 39.5792 67.5779 40.2453 67.3906C42.2261 66.8332 44.0494 65.7731 46.1201 65.5293C47.8416 65.3259 49.5394 65.0221 50.1487 63.1984C50.3347 62.6419 50.4739 62.0451 50.8624 61.5988C51.1675 61.2475 51.599 61.0243 51.9426 60.7089C52.5657 60.1371 52.5382 59.5403 51.9362 59.0161C51.468 58.6092 51.3233 58.0652 50.9467 57.6127C50.6324 57.2336 50.1111 57.0965 50.0534 56.5462C49.9911 55.9458 50.2421 55.3642 50.418 54.7862C51.272 51.9758 50.3356 48.9253 48.9173 46.3426C47.4981 43.7599 45.6024 41.4388 44.3197 38.788C43.7159 37.5397 43.2468 36.2169 42.4451 35.0797C40.7244 32.6386 37.4187 30.8006 37.5974 27.8406C37.7128 25.9219 39.406 24.3993 41.2439 23.72C41.9989 23.4404 42.796 23.2648 43.5198 22.9162C44.1035 22.6348 44.6266 22.2477 45.1452 21.8623C47.1087 20.4052 49.0721 18.948 51.0365 17.49C51.6403 17.0419 52.2642 16.5705 52.6032 15.9082C53.3747 14.4009 52.4072 12.6292 52.3412 10.9444C52.2725 9.19066 53.2263 7.51753 54.5163 6.29876C55.8063 5.07999 57.4143 4.24029 58.9994 3.41762V3.4212ZM23.4363 33.4173C23.4363 33.4173 23.4546 33.4846 23.5023 33.5527C23.4537 33.4846 23.4363 33.4173 23.4363 33.4173ZM37.2474 55.6259C37.2254 55.6734 37.1796 55.7809 37.1622 55.8885C37.1796 55.7818 37.2254 55.6734 37.2474 55.6259ZM39.8247 57.7265C39.7615 57.7238 39.5975 57.7184 39.5361 57.7157L39.8247 57.7265ZM46.9181 15.2944C46.9181 15.3024 46.9181 15.3087 46.9181 15.3087C46.9181 15.3087 46.9181 15.3033 46.9181 15.2944Z" fill="#CD866C"/>
</g>
<defs>
<clipPath id="clip0_5732_38410">
<rect width="75" height="73" fill="white"/>
</clipPath>
</defs>
</svg>
