<svg width="74" height="79" viewBox="0 0 74 79" fill="none" xmlns="http://www.w3.org/2000/svg">
<g id="Layer_2" clip-path="url(#clip0_5773_13740)">
<path id="Vector" d="M74.6421 3.13871L30.2377 41.3612L28.5588 39.4108L72.9632 1.18827C73.2022 0.982597 73.5641 1.00967 73.7697 1.24862L74.7025 2.33219C74.9081 2.57114 74.8811 2.93304 74.6421 3.13871Z" fill="#625B58"/>
<path id="Vector_2" d="M42.0717 48.7239C42.5907 48.5964 43.0615 48.2105 43.6164 47.7425C43.9776 47.4316 44.4039 47.084 44.9304 46.7178C46.9371 45.3291 44.9543 41.3959 43.6238 39.5131L42.9 39.8073C43.0268 39.9883 46.0069 44.2821 44.0494 45.6381C43.5173 46.009 43.0847 46.3718 42.7076 46.6867C41.3818 47.7989 41.0608 47.9204 40.0568 46.9563C38.0678 45.0502 36.7543 44.0525 36.6954 44.0065L36.5023 44.8499C36.5023 44.8499 37.776 45.8238 39.6534 47.6228C40.706 48.6321 41.4255 48.8835 42.0661 48.7287L42.0717 48.7239Z" fill="#7C7572"/>
<path id="Vector_3" d="M39.315 41.3702C39.315 41.3702 40.1558 43.4035 41.6376 44.237C43.1193 45.0705 43.5626 44.4954 43.5626 44.4954C43.5626 44.4954 43.9141 45.9826 42.0435 45.5515C40.173 45.1204 38.1393 42.7691 38.1393 42.7691L39.3094 41.375L39.315 41.3702Z" fill="#7C7572"/>
<path id="Vector_4" d="M70.7757 8.87743L31.3686 42.7984L28.0203 38.9086L67.4275 4.98767C67.7588 4.7025 68.1704 4.6335 68.3431 4.83417L71.0638 7.99481C71.2365 8.19549 71.107 8.59226 70.7757 8.87743Z" fill="#7C7572"/>
<path id="Vector_5" d="M10.4378 73.4367C5.54761 68.8232 6.97622 64.0431 14.6793 59.2022C20.5438 55.5182 21.9905 54.0407 24.0714 52.0077C25.2158 50.8871 25.9657 49.342 26.3468 47.5144L28.1703 38.7763C31.124 39.6004 33.6292 39.2627 35.27 37.831L54.4293 22.5966C54.4293 22.5966 57.0256 27.4335 48.257 34.9814C46.6177 36.3924 41.3787 41.7921 36.9269 46.7463C35.5487 48.2809 33.9986 49.3347 35.1623 52.4735C35.1623 52.4735 36.6265 55.2085 35.6064 56.0576L32.9518 57.2107C31.4139 57.2672 27.3984 60.5593 26.787 68.2444C26.5276 71.5731 21.3642 82.3541 15.566 77.7871C9.76772 73.2202 15.4786 78.1913 10.4378 73.4367Z" fill="#B97D69"/>
</g>
<defs>
<clipPath id="clip0_5773_13740">
<rect width="95.161" height="25.1851" fill="white" transform="translate(0.791992 62.3438) rotate(-40.7213)"/>
</clipPath>
</defs>
</svg>
