<svg width="75" height="80" viewBox="0 0 75 80" fill="none" xmlns="http://www.w3.org/2000/svg">
<g id="Layer_6">
<g id="Group">
<g id="Group_2">
<path id="Vector" d="M46.5028 5.1875H28.5996V34.8399H46.5028V5.1875Z" fill="#897D7A"/>
<path id="Vector_2" d="M47.4299 5.18434C47.4299 6.00745 46.925 6.67338 46.3042 6.67338H28.7941C28.1734 6.67338 27.6685 6.00745 27.6685 5.18434C27.6685 4.36124 28.1734 3.69531 28.7941 3.69531H46.3042C46.925 3.69531 47.4299 4.36124 47.4299 5.18434Z" fill="#363F48"/>
<path id="Vector_3" d="M47.4299 20.0125C47.4299 20.8356 46.925 21.5015 46.3042 21.5015H28.7941C28.1734 21.5015 27.6685 20.8356 27.6685 20.0125C27.6685 19.1894 28.1734 18.5234 28.7941 18.5234H46.3042C46.925 18.5234 47.4299 19.1894 47.4299 20.0125Z" fill="#363F48"/>
<path id="Vector_4" d="M47.4299 34.8328C47.4299 35.6559 46.925 36.3218 46.3042 36.3218H28.7941C28.1734 36.3218 27.6685 35.6559 27.6685 34.8328C27.6685 34.0097 28.1734 33.3438 28.7941 33.3438H46.3042C46.925 33.3438 47.4299 34.0097 47.4299 34.8328Z" fill="#363F48"/>
</g>
<path id="Vector_5" d="M56.5842 74.2318V42.2466C56.5842 38.4744 53.5259 35.4219 49.7515 35.4219H25.3426C21.5683 35.4219 18.514 38.4785 18.514 42.2466V74.2318H56.5842Z" fill="#F29776" fill-opacity="0.8"/>
<path id="Vector_6" d="M61 72.1641H14.0983V76.3003H61V72.1641Z" fill="#897D7A"/>
</g>
</g>
</svg>
