<svg width="75" height="64" viewBox="0 0 75 64" fill="none" xmlns="http://www.w3.org/2000/svg">
<g id="_xF91C_&#231;&#147;&#166;?x5F_1" clip-path="url(#clip0_5732_38426)">
<path id="Vector" d="M37.3982 48.2232C38.2201 48.2232 39.0732 48.1561 40.1539 48.0027C42.2339 47.6193 44.1293 46.9555 45.7899 46.0306C47.508 45.0745 49.032 43.8021 50.3188 42.2517C51.9507 40.2316 53.0002 38.2356 53.6185 35.9783C54.2918 32.9231 54.3901 30.6826 53.9372 28.7248L53.9132 28.6266L53.8964 28.5259C53.2399 24.5865 51.2893 21.1838 48.2581 18.6821C46.226 17.0383 44.2156 15.9839 41.9391 15.3681C40.8153 15.0901 39.6794 14.9008 38.5628 14.805C38.2417 14.7834 37.9278 14.7714 37.5995 14.7714C36.7776 14.7714 35.9245 14.8385 34.8438 14.9919C32.7639 15.3753 30.8684 16.039 29.2078 16.964C27.4897 17.9201 25.9657 19.1925 24.6789 20.7429C23.0374 22.7749 21.9855 24.7806 21.3673 27.057C21.0893 28.1809 20.9 29.3167 20.8041 30.4334C20.7251 31.55 20.7826 32.6667 20.991 34.1523C21.3744 36.2323 22.0382 38.1277 22.9632 39.7883C23.9193 41.5065 25.1917 43.0305 26.7421 44.3173C28.7741 45.9587 30.7798 47.0107 33.0562 47.6289C34.18 47.9069 35.3159 48.0962 36.4325 48.192C36.7536 48.2136 37.0675 48.2256 37.3958 48.2256M37.3982 51.5156C36.998 51.5156 36.5931 51.5012 36.1833 51.4725C34.8654 51.3623 33.5498 51.1442 32.2319 50.8135C29.3779 50.0443 26.9625 48.7288 24.6597 46.8621C20.8185 43.6799 18.6235 39.508 17.7441 34.6795C17.5237 33.1435 17.4158 31.7154 17.5237 30.1794C17.6339 28.8614 17.8519 27.5459 18.1826 26.2279C18.9518 23.374 20.2674 20.9586 22.1341 18.6558C25.3163 14.8145 29.4882 12.6196 34.3166 11.7402C35.4405 11.5796 36.5068 11.4766 37.6019 11.4766C38.0021 11.4766 38.407 11.4909 38.8168 11.5197C40.1347 11.6299 41.4503 11.848 42.7682 12.1787C45.6222 12.9479 48.0376 14.2634 50.3404 16.1301C54.0714 19.2021 56.3766 23.374 57.1458 27.9844C57.8047 30.8383 57.4741 33.8025 56.8175 36.7643C56.0483 39.6182 54.7327 42.0336 52.8661 44.3364C49.6838 48.1776 45.5119 50.3726 40.6835 51.252C39.5596 51.4126 38.4933 51.5156 37.3982 51.5156Z" fill="#BF846E"/>
<path id="Vector_2" d="M38.3782 63C38.0499 62.2308 37.609 61.5742 36.9524 61.1333C34.6472 59.7075 33.001 57.5126 32.783 54.8767C33.66 55.3152 34.6496 55.4254 35.6369 55.205C37.8319 54.6562 40.0268 54.2177 42.2218 54.8767C41.1243 55.4254 40.2473 56.4127 39.8064 57.6204C39.3679 59.4871 39.4781 61.3514 38.3806 62.9976L38.3782 63Z" fill="#BF846E"/>
<path id="Vector_3" d="M36.6218 -0.00124645C36.9501 0.767952 37.391 1.42453 38.0476 1.86544C40.3528 3.29121 41.999 5.48618 42.2171 8.12207C41.34 7.68355 40.3504 7.57332 39.3631 7.79378C37.1681 8.34252 34.9732 8.78104 32.7782 8.12207C33.8757 7.57332 34.7527 6.58606 35.1936 5.37835C35.6321 3.51167 35.5219 1.64738 36.6194 0.00115204L36.6218 -0.00124645Z" fill="#BF846E"/>
<path id="Vector_4" d="M59.8894 53.8882C59.1202 52.901 57.9149 52.5703 56.7072 52.4625C54.8405 52.4625 52.866 52.6829 50.9993 52.0239C51.8763 51.5854 52.5353 50.9265 53.084 50.0494C53.6328 48.9519 53.8532 47.7442 54.5098 46.6467C55.1688 45.7697 55.8277 45.0005 56.7048 44.4518C56.815 45.0005 56.9252 45.5493 57.1433 46.098C57.5818 47.3057 58.4612 48.1827 59.01 49.2802C59.6689 50.706 59.9972 52.2444 59.887 53.8906L59.8894 53.8882Z" fill="#BF846E"/>
<path id="Vector_5" d="M15.1105 9.11041C15.8797 10.0977 17.085 10.4284 18.2928 10.5362C20.1594 10.5362 22.134 10.3157 24.0006 10.9747C23.1236 11.4132 22.4646 12.0722 21.9159 12.9492C21.3672 14.0467 21.1467 15.2544 20.4901 16.3519C19.8312 17.2289 19.1722 17.9981 18.2951 18.5469C18.1849 17.9981 18.0747 17.4494 17.8566 16.9006C17.4181 15.6929 16.5387 14.8159 15.9899 13.7184C15.331 12.2926 15.0027 10.7542 15.1129 9.10802L15.1105 9.11041Z" fill="#BF846E"/>
<path id="Vector_6" d="M69 30.6211C68.2308 30.9494 67.5743 31.3903 67.1333 32.0469C65.7076 34.3521 63.5126 35.9983 60.8767 36.2188C61.3152 35.3417 61.4255 34.3521 61.205 33.3648C60.6563 31.1698 60.2177 28.9749 60.8767 26.7799C61.4255 27.8774 62.4127 28.7544 63.6204 29.1953C65.4871 29.6338 67.3514 29.5236 68.9976 30.6211H69Z" fill="#BF846E"/>
<path id="Vector_7" d="M6 32.3775C6.7692 32.0493 7.42577 31.6084 7.86668 30.9518C9.29246 28.6466 11.4874 27.0003 14.1233 26.7799C13.6848 27.6569 13.5746 28.6466 13.795 29.6338C14.3438 31.8288 14.7823 34.0238 14.1233 36.2188C13.5746 35.1213 12.5873 34.2442 11.3796 33.8033C9.51291 33.3648 7.64863 33.475 6.0024 32.3775H6Z" fill="#BF846E"/>
<path id="Vector_8" d="M59.8895 9.10988C58.9022 9.87908 58.5715 11.0844 58.4637 12.2921C58.4637 14.1588 58.6841 16.1333 58.0252 18C57.5867 17.123 56.9277 16.464 56.0507 15.9153C54.9532 15.3665 53.7455 15.1461 52.648 14.4895C51.7709 13.8305 51.0017 13.1715 50.453 12.2945C51.0017 12.1843 51.5505 12.0741 52.0992 11.856C53.3069 11.4175 54.184 10.5381 55.2815 9.98931C56.7072 9.33034 58.2456 9.00205 59.8919 9.11228L59.8895 9.10988Z" fill="#BF846E"/>
<path id="Vector_9" d="M15.1106 53.8876C16.0978 53.1184 16.4285 51.9131 16.5363 50.7054C16.5363 48.8387 16.3159 46.8642 16.9748 44.9975C17.4134 45.8746 18.0723 46.5335 18.9494 47.0823C20.0468 47.631 21.2546 47.8515 22.352 48.508C23.2291 49.167 23.9983 49.826 24.547 50.703C23.9983 50.8132 23.4495 50.9235 22.9008 51.1415C21.6931 51.5801 20.816 52.4595 19.7186 53.0082C18.2928 53.6672 16.7544 53.9955 15.1082 53.8853L15.1106 53.8876Z" fill="#BF846E"/>
</g>
<defs>
<clipPath id="clip0_5732_38426">
<rect width="75" height="63" fill="white" transform="matrix(1 0 0 -1 0 63.5)"/>
</clipPath>
</defs>
</svg>
